<svg xmlns="http://www.w3.org/2000/svg" viewBox="0 0 741 390" role="img" aria-label="United States">
  <rect width="741" height="390" fill="#b22234"/>
  <g fill="#fff">
    <rect y="30" width="741" height="30"/>
    <rect y="90" width="741" height="30"/>
    <rect y="150" width="741" height="30"/>
    <rect y="210" width="741" height="30"/>
    <rect y="270" width="741" height="30"/>
    <rect y="330" width="741" height="30"/>
  </g>
  <rect width="296.4" height="210" fill="#3c3b6e"/>
  <g fill="#fff">
    <g id="star">
      <polygon points="0,-6 1.76,-1.85 5.83,-1.85 2.29,0.71 3.54,6.71 0,3.35 -3.54,6.71 -2.29,0.71 -5.83,-1.85 -1.76,-1.85"/>
    </g>
    <g transform="translate(24.7 21)">
      <use href="#star"/><use href="#star" x="49.4"/><use href="#star" x="98.8"/><use href="#star" x="148.2"/><use href="#star" x="197.6"/><use href="#star" x="247"/>
    </g>
    <g transform="translate(49.4 42)">
      <use href="#star"/><use href="#star" x="49.4"/><use href="#star" x="98.8"/><use href="#star" x="148.2"/><use href="#star" x="197.6"/>
    </g>
    <g transform="translate(24.7 63)">
      <use href="#star"/><use href="#star" x="49.4"/><use href="#star" x="98.8"/><use href="#star" x="148.2"/><use href="#star" x="197.6"/><use href="#star" x="247"/>
    </g>
    <g transform="translate(49.4 84)">
      <use href="#star"/><use href="#star" x="49.4"/><use href="#star" x="98.8"/><use href="#star" x="148.2"/><use href="#star" x="197.6"/>
    </g>
    <g transform="translate(24.7 105)">
      <use href="#star"/><use href="#star" x="49.4"/><use href="#star" x="98.8"/><use href="#star" x="148.2"/><use href="#star" x="197.6"/><use href="#star" x="247"/>
    </g>
    <g transform="translate(49.4 126)">
      <use href="#star"/><use href="#star" x="49.4"/><use href="#star" x="98.8"/><use href="#star" x="148.2"/><use href="#star" x="197.6"/>
    </g>
    <g transform="translate(24.7 147)">
      <use href="#star"/><use href="#star" x="49.4"/><use href="#star" x="98.8"/><use href="#star" x="148.2"/><use href="#star" x="197.6"/><use href="#star" x="247"/>
    </g>
    <g transform="translate(49.4 168)">
      <use href="#star"/><use href="#star" x="49.4"/><use href="#star" x="98.8"/><use href="#star" x="148.2"/><use href="#star" x="197.6"/>
    </g>
  </g>
</svg>
